<svg width="24" height="24" viewBox="0 0 20 20" fill="none" xmlns="http://www.w3.org/2000/svg">
    <g clip-path="url(#clip0_716_1502)">
        <path d="M20 0H0V20H20V0Z" fill="url(#paint0_linear_716_1502)"/>
        <path fill-rule="evenodd" clip-rule="evenodd" d="M9.67754 6.41071C9.65452 6.45167 9.621 6.48627 9.58019 6.51123L6.75761 8.08113V11.6987L9.97474 13.4734L12.7569 11.9132C12.798 11.8891 12.8453 11.8764 12.8934 11.8764C12.9416 11.8764 12.9888 11.8891 13.03 11.9132L15.6604 13.3564C15.705 13.3789 15.7425 13.4124 15.7692 13.4536C15.7959 13.4947 15.8107 13.5419 15.8121 13.5904C15.8118 13.6391 15.7974 13.6868 15.7706 13.7281C15.7438 13.7694 15.7057 13.8028 15.6604 13.8244L10.0658 16.9447C10.0229 16.9709 9.97452 16.9875 9.92416 16.9935C9.87738 17.0022 9.82931 17.0022 9.78252 16.9935L3.64164 13.5807C3.59815 13.5553 3.56223 13.5195 3.53741 13.4768C3.51258 13.4341 3.49969 13.3859 3.50001 13.3369V6.43322C3.50152 6.3846 3.51519 6.33705 3.53985 6.29461C3.56451 6.25217 3.59943 6.2161 3.64164 6.18945L9.29692 3.03989C9.33921 3.01384 9.38836 3 9.43855 3C9.48875 3 9.53789 3.01384 9.58019 3.03989C9.62581 3.06472 9.66271 3.10211 9.68614 3.14728C9.70957 3.19245 9.71848 3.24334 9.71171 3.29342V6.2772C9.71232 6.32379 9.70056 6.36974 9.67754 6.41071ZM9.92416 13.9804L6.34282 12.0303C6.30498 12.0108 6.27244 11.9829 6.24783 11.9491C6.22322 11.9152 6.20724 11.8762 6.20118 11.8352V7.93486C6.19941 7.88694 6.21178 7.83951 6.23685 7.79809C6.26192 7.75666 6.29866 7.72294 6.34282 7.70084L9.1654 6.13094V3.75171L4.00584 6.60874V13.1614L10.0759 16.5157L15.2456 13.5904L13.0907 12.391L10.2175 13.9804C10.1726 14.0043 10.1222 14.0169 10.0709 14.0169C10.0195 14.0169 9.96908 14.0043 9.92416 13.9804ZM16.065 12.9575L13.3537 11.4851C13.3062 11.4617 13.2672 11.4249 13.2419 11.3796C13.2166 11.3343 13.2062 11.2827 13.212 11.2316V8.082L10.3894 6.5316C10.346 6.50863 10.3099 6.47472 10.285 6.4335C10.26 6.39228 10.2472 6.3453 10.2478 6.29758V3.30404C10.2472 3.25632 10.26 3.20934 10.285 3.16812C10.3099 3.1269 10.346 3.09299 10.3894 3.07002C10.4287 3.04567 10.4743 3.03271 10.521 3.03271C10.5676 3.03271 10.6133 3.04567 10.6525 3.07002L16.3583 6.20982C16.4004 6.23429 16.4354 6.26853 16.4601 6.30942C16.4849 6.35031 16.4986 6.39653 16.5 6.44384V12.6747C16.4986 12.722 16.4849 12.7682 16.4601 12.8091C16.4354 12.85 16.4004 12.8843 16.3583 12.9087C16.3132 12.9378 16.2608 12.9546 16.2066 12.9575C16.1605 12.9717 16.111 12.9717 16.065 12.9575ZM10.7941 3.76234V6.13181L13.6167 7.71147C13.6601 7.73444 13.6962 7.76835 13.7211 7.80957C13.7461 7.85079 13.7589 7.89777 13.7583 7.94549V11.0755L15.9233 12.2749V6.61936L10.7941 3.76234Z" fill="white"/>
    </g>
    <defs>
        <linearGradient id="paint0_linear_716_1502" x1="19.76" y1="0.24" x2="0.5" y2="19.5" gradientUnits="userSpaceOnUse">
            <stop stop-color="#FF9900"/>
            <stop offset="0.43" stop-color="#E97C0B"/>
            <stop offset="1" stop-color="#C8511B"/>
        </linearGradient>
        <clipPath id="clip0_716_1502">
            <rect width="20" height="20" fill="white"/>
        </clipPath>
    </defs>
</svg>
