<svg width="24" height="24" viewBox="0 0 20 20" fill="none" xmlns="http://www.w3.org/2000/svg">
    <g clip-path="url(#clip0_716_1497)">
        <path d="M20 0H0V20H20V0Z" fill="url(#paint0_linear_716_1497)"/>
        <path fill-rule="evenodd" clip-rule="evenodd" d="M5.80211 3V3.55623H3.95503L6.05399 5.65519L5.66568 6.05399L3.56672 3.95503V5.79162H3V3.27287C3.00272 3.19955 3.03377 3.13014 3.08662 3.07925C3.13946 3.02836 3.20999 2.99995 3.28336 3H5.80211ZM16.7166 3H14.1979V3.56672H16.045L13.946 5.66568L14.3343 6.06449L16.4333 3.96552V5.79162H17V3.28336C17 3.20821 16.9701 3.13613 16.917 3.08299C16.8639 3.02985 16.7918 3 16.7166 3ZM9.99991 6.21122C8.50965 6.21122 6.91444 6.58903 6.91444 7.39713C6.90938 7.43896 6.90938 7.48124 6.91444 7.52307V12.5711C6.91444 13.4107 8.48866 13.7675 9.98941 13.7675C11.4902 13.7675 13.0644 13.4002 13.0644 12.5921V7.39713C13.0644 6.58903 11.4692 6.21122 9.99991 6.21122ZM9.99991 6.77794C11.6371 6.77794 12.5187 7.21872 12.5187 7.40763C12.5187 7.59653 11.6371 8.02682 9.99991 8.02682C8.36272 8.02682 7.48116 7.58604 7.48116 7.40763C7.48116 7.22922 8.36272 6.77794 9.99991 6.77794ZM12.5187 12.5921C12.5187 12.7705 11.6371 13.2113 9.99991 13.2113C8.36272 13.2113 7.48116 12.7705 7.48116 12.5921V11.7105C8.27628 12.0496 9.13594 12.2108 9.99991 12.1828C10.8632 12.2148 11.7229 12.0572 12.5187 11.721V12.5921ZM12.5187 10.9969C12.5187 11.1753 11.6371 11.6265 9.99991 11.6265C8.36272 11.6265 7.48116 11.1753 7.48116 10.9969V9.94737C8.27348 10.2965 9.13463 10.4616 9.99991 10.4301C10.8616 10.4681 11.7211 10.3177 12.5187 9.98935V10.9969ZM12.5187 9.21274C12.5187 9.40164 11.6371 9.84242 9.99991 9.84242C8.36272 9.84242 7.48116 9.40164 7.48116 9.21274V8.16325C8.27537 8.50451 9.13629 8.66235 9.99991 8.62503C10.8644 8.6605 11.7257 8.49901 12.5187 8.15276V9.21274ZM5.66568 13.9355L3.56672 16.0345V14.1874H3V16.7061C3 16.7813 3.02985 16.8534 3.08299 16.9065C3.13613 16.9597 3.20821 16.9895 3.28336 16.9895H5.80211V16.4228H3.95503L6.05399 14.3238L5.66568 13.9355ZM14.3344 13.9355L16.4333 16.0345V14.1874H17V16.7166C17 16.7918 16.9702 16.8639 16.917 16.917C16.8639 16.9701 16.7918 17 16.7167 17H14.1979V16.4333H16.045L13.946 14.3343L14.3344 13.9355ZM5.89559 7.89049L5.70669 7.36575C3.99604 7.96395 3.02002 8.93997 3.02002 9.92648C3.02002 10.913 3.99604 11.889 5.70669 12.5082L5.89559 11.973C4.44731 11.4587 3.57624 10.6821 3.57624 9.87401C3.57624 9.06591 4.44731 8.39424 5.89559 7.89049ZM13.9565 7.81695L14.135 7.28171C15.9506 7.89041 17 8.84544 17 9.90541C17 10.9654 15.9506 11.9309 14.135 12.5396L13.9565 12.0149C15.5098 11.5006 16.4333 10.703 16.4333 9.91591C16.4333 9.1288 15.5098 8.34169 13.9565 7.81695Z" fill="white"/>
    </g>
    <defs>
        <linearGradient id="paint0_linear_716_1497" x1="19.76" y1="0.24" x2="0.5" y2="19.5" gradientUnits="userSpaceOnUse">
            <stop stop-color="#527FFF"/>
            <stop offset="0.36" stop-color="#4662E4"/>
            <stop offset="1" stop-color="#2E27AD"/>
        </linearGradient>
        <clipPath id="clip0_716_1497">
            <rect width="20" height="20" fill="white"/>
        </clipPath>
    </defs>
</svg>
