<svg width="24" height="24" viewBox="0 0 100 100" fill="none" xmlns="http://www.w3.org/2000/svg">
    <g clip-path="url(#clip0_2_4725)">
        <path d="M100 0H0V100H100V0Z" fill="url(#paint0_linear_2_4725)"/>
        <path d="M81.9067 53.4133C81.52 51.32 79.1467 49.84 77.52 48.7867C77 48.4533 75.5733 47.92 75.4533 47.4533C75.4451 47.1195 75.4901 46.7864 75.5867 46.4667L76.92 36.88C77.3067 34.0667 77.68 31.2533 78.0667 28.44C78.4133 25.8533 77.1733 24.12 75.0667 22.6667C70.7733 19.6933 65.1733 18.4933 60.12 17.6667C53.7826 16.632 47.3381 16.4214 40.9467 17.04C35.1982 17.4618 29.5561 18.8127 24.24 21.04C21.3867 22.3733 17.6533 24.4533 18.12 28.0933C19.4533 38.92 21.0267 49.72 22.48 60.5334C23.1467 65.48 23.8133 70.4267 24.48 75.3733C24.5876 76.3366 24.9475 77.2544 25.5235 78.034C26.0994 78.8136 26.8709 79.4274 27.76 79.8134C31.8933 82.0534 37.0133 82.6934 41.6267 83.12C47.7599 83.674 53.9397 83.4005 60 82.3067C63.84 81.6 70.9867 80.44 71.6 75.64C72.36 69.6933 73.2 63.7467 74 57.8133L74.2933 56C76.4667 56.52 82.6667 57.6267 81.9067 53.4133ZM48.0667 19.3333C56.0667 19.3333 65.2267 20.24 72.4 24.1867C73.5067 24.8 76.08 26.1733 75.3067 27.8C74.5333 29.4267 72.1333 30.24 70.6667 30.8267C68.5723 31.6003 66.4186 32.2023 64.2267 32.6267C54.7089 34.5121 44.9345 34.7152 35.3467 33.2267C31.0173 32.7802 26.806 31.5467 22.92 29.5867C21.96 29.04 20.3733 28.0533 20.8133 26.7467C21.1618 26.0446 21.7089 25.4604 22.3867 25.0667C25.3153 23.1833 28.5718 21.8671 31.9867 21.1867C37.2523 19.9226 42.6515 19.3003 48.0667 19.3333ZM68.9733 75.5334C68.7733 77.0934 66.2 77.8667 64.9733 78.3067C62.4267 79.1585 59.7997 79.7483 57.1333 80.0667C51.2171 80.8533 45.2228 80.8533 39.3067 80.0667C35.6012 79.7792 31.9828 78.7977 28.64 77.1734C28.1852 76.9757 27.7945 76.6551 27.5119 76.2476C27.2293 75.8401 27.0658 75.3619 27.04 74.8667C25.7067 64.2934 24.1867 53.72 22.76 43.1467L21.2133 31.68C24.2445 33.3531 27.5344 34.5068 30.9467 35.0933C34.6013 35.8371 38.3038 36.3228 42.0267 36.5467C49.3331 37.0703 56.6764 36.6625 63.88 35.3333C67.7183 34.7813 71.4261 33.5438 74.8267 31.68L72 52.6133C65.2434 50.3873 58.6422 47.7148 52.24 44.6133C51.9591 44.5061 51.6871 44.3768 51.4267 44.2267C51.0667 43.96 51.16 44.0933 50.9867 43.68C50.6533 42.92 50.5733 42.3467 49.8667 41.72C49.4852 41.4145 49.0348 41.2067 48.5547 41.115C48.0746 41.0232 47.5794 41.0501 47.112 41.1933C46.6447 41.3366 46.2195 41.5918 45.8733 41.9369C45.5271 42.282 45.2705 42.7064 45.1258 43.1733C44.9811 43.6401 44.9526 44.1353 45.0429 44.6157C45.1332 45.096 45.3395 45.5471 45.6438 45.9296C45.9481 46.312 46.3413 46.6143 46.7892 46.8102C47.237 47.0061 47.7259 47.0895 48.2133 47.0533C48.6729 46.9771 49.121 46.8427 49.5467 46.6533C50.0667 46.4933 50.0667 46.52 50.6133 46.7733C57.0978 49.9353 63.7781 52.6787 70.6133 54.9867C71.64 55.32 71.6267 54.9867 71.6267 55.84C71.5834 56.4892 71.4987 57.1349 71.3733 57.7733L70.52 64.1333L68.9733 75.5334ZM48.4 44C48.4 44.36 47.8933 44.32 47.76 44.0933C47.6267 43.8667 48.4 43.4933 48.4 44ZM74.6667 53.3333L75.0667 50.3867C76.4 51.1467 78.6667 52.2933 79.2667 53.8133C77.96 54.3467 75.8933 53.64 74.6667 53.3333Z" fill="white"/>
    </g>
    <defs>
        <linearGradient id="paint0_linear_2_4725" x1="-20.7067" y1="120.707" x2="120.707" y2="-20.7067" gradientUnits="userSpaceOnUse">
            <stop stop-color="#1B660F"/>
            <stop offset="1" stop-color="#6CAE3E"/>
        </linearGradient>
        <clipPath id="clip0_2_4725">
            <rect width="100" height="100" fill="white"/>
        </clipPath>
    </defs>
</svg>
